<svg width="500" height="500" viewBox="0 0 500 500" fill="none" xmlns="http://www.w3.org/2000/svg">
<rect width="500" height="500" fill="black"/>
<rect x="173" y="175" width="166" height="134" rx="10" fill="#FF6565"/>
<ellipse cx="255.5" cy="242.5" rx="57.5" ry="50.5" fill="black"/>
<ellipse cx="255.5" cy="242" rx="30.5" ry="26" fill="white"/>
<rect x="110" y="135.328" width="20" height="53.3417" transform="rotate(-41.789 110 135.328)" fill="#FF6565"/>
<rect x="140.071" y="103.651" width="20" height="53.3417" transform="rotate(-30.5159 140.071 103.651)" fill="#FF6565"/>
<rect x="355.09" y="93" width="20" height="53.3417" transform="rotate(39.7243 355.09 93)" fill="#FF6565"/>
<rect x="390.858" y="118.067" width="20" height="53.3417" transform="rotate(50.9975 390.858 118.067)" fill="#FF6565"/>
<path d="M238.083 353V338.455H243.538C244.655 338.455 245.593 338.663 246.35 339.08C247.112 339.496 247.688 340.069 248.076 340.798C248.469 341.523 248.665 342.347 248.665 343.27C248.665 344.203 248.469 345.031 248.076 345.756C247.683 346.48 247.103 347.051 246.336 347.467C245.569 347.879 244.624 348.085 243.502 348.085H239.887V345.919H243.147C243.8 345.919 244.335 345.805 244.752 345.578C245.169 345.351 245.477 345.038 245.675 344.641C245.879 344.243 245.981 343.786 245.981 343.27C245.981 342.754 245.879 342.299 245.675 341.906C245.477 341.513 245.166 341.208 244.745 340.99C244.328 340.768 243.791 340.656 243.133 340.656H240.718V353H238.083ZM253.412 338.455V353H250.841V338.455H253.412ZM259.195 353.22C258.503 353.22 257.881 353.097 257.327 352.851C256.777 352.6 256.342 352.231 256.02 351.743C255.703 351.255 255.544 350.654 255.544 349.939C255.544 349.323 255.658 348.814 255.885 348.412C256.112 348.009 256.422 347.688 256.815 347.446C257.208 347.205 257.651 347.022 258.143 346.899C258.641 346.771 259.154 346.679 259.685 346.622C260.324 346.556 260.842 346.497 261.24 346.445C261.638 346.388 261.927 346.303 262.107 346.189C262.291 346.071 262.384 345.888 262.384 345.642V345.599C262.384 345.064 262.225 344.65 261.908 344.357C261.59 344.063 261.134 343.916 260.537 343.916C259.907 343.916 259.408 344.054 259.038 344.328C258.674 344.603 258.428 344.927 258.3 345.301L255.899 344.96C256.089 344.297 256.401 343.743 256.837 343.298C257.272 342.848 257.805 342.512 258.435 342.29C259.064 342.062 259.76 341.949 260.523 341.949C261.048 341.949 261.571 342.01 262.092 342.134C262.613 342.257 263.089 342.46 263.52 342.744C263.951 343.024 264.296 343.405 264.557 343.888C264.822 344.371 264.955 344.974 264.955 345.699V353H262.483V351.501H262.398C262.241 351.804 262.021 352.089 261.737 352.354C261.458 352.614 261.105 352.825 260.679 352.986C260.258 353.142 259.763 353.22 259.195 353.22ZM259.862 351.331C260.378 351.331 260.826 351.229 261.205 351.026C261.583 350.817 261.875 350.543 262.078 350.202C262.286 349.861 262.391 349.489 262.391 349.087V347.801C262.31 347.867 262.173 347.929 261.979 347.986C261.789 348.043 261.576 348.092 261.339 348.135C261.103 348.178 260.868 348.215 260.636 348.249C260.404 348.282 260.203 348.31 260.033 348.334C259.649 348.386 259.306 348.471 259.003 348.589C258.7 348.708 258.461 348.874 258.286 349.087C258.11 349.295 258.023 349.565 258.023 349.896C258.023 350.37 258.196 350.727 258.541 350.969C258.887 351.21 259.327 351.331 259.862 351.331ZM268.747 357.091C268.397 357.091 268.072 357.063 267.774 357.006C267.481 356.954 267.246 356.892 267.071 356.821L267.668 354.818C268.042 354.927 268.375 354.979 268.669 354.974C268.963 354.97 269.221 354.877 269.443 354.697C269.67 354.522 269.862 354.229 270.018 353.817L270.239 353.227L266.283 342.091H269.01L271.524 350.33H271.638L274.159 342.091H276.893L272.526 354.321C272.322 354.899 272.052 355.393 271.716 355.805C271.38 356.222 270.968 356.539 270.48 356.757C269.997 356.98 269.42 357.091 268.747 357.091Z" fill="white"/>
<line x1="237.5" y1="372" x2="237.5" y2="415" stroke="white"/>
<line x1="282.211" y1="394.453" x2="237.211" y2="415.453" stroke="white"/>
<line x1="281.78" y1="394.449" x2="236.78" y2="372.449" stroke="white"/>
</svg>
